<?xml version="1.0" encoding="UTF-8"?>
<svg width="24px" height="24px" viewBox="0 0 24 24" version="1.1" xmlns="http://www.w3.org/2000/svg" xmlns:xlink="http://www.w3.org/1999/xlink">
    <!-- Generator: Sketch 51.3 (57544) - http://www.bohemiancoding.com/sketch -->
    <title>ic_back</title>
    <desc>Created with Sketch.</desc>
    <defs>
        <polygon id="path-1" points="0 -1.42108547e-14 19.9735484 -1.42108547e-14 19.9735484 13.62007 0 13.62007"></polygon>
    </defs>
    <g id="ic_back" stroke="none" stroke-width="1" fill="none" fill-rule="evenodd">
        <g id="Group-3" transform="translate(2.000000, 5.000000)">
            <mask id="mask-2" fill="white">
                <use xlink:href="#path-1"></use>
            </mask>
            <g id="Clip-2"></g>
            <path d="M4.36405161,8.08069444 C4.72792258,8.41907828 5.09747097,8.75013889 5.45243871,9.09534091 C6.30534194,9.92488636 7.15527742,10.7575884 7.99901935,11.5962247 C8.45024516,12.0447096 8.52663226,12.6212247 8.21837419,13.0844823 C7.81037419,13.6976136 6.97218065,13.8082197 6.43889032,13.2918056 C5.43050323,12.3154167 4.4372129,11.3241288 3.44185806,10.3349874 C2.33411613,9.23397727 1.23514839,8.12438131 0.1216,7.02905303 C-0.0554322581,6.85481061 -0.0276903226,6.75619949 0.13076129,6.59988636 C2.22689032,4.53233586 4.31630968,2.45834596 6.41153548,0.389785354 C6.84882581,-0.0420328283 7.37179355,-0.112992424 7.8739871,0.166300505 C8.30018065,0.403295455 8.51656774,0.945088384 8.39476129,1.45127525 C8.34030968,1.67766414 8.19592258,1.84117424 8.03592258,1.99938131 C6.9092129,3.11251263 5.78276129,4.2257702 4.65940645,5.34205808 C4.56740645,5.43334596 4.44147097,5.50518939 4.40495484,5.65039141 C4.5256,5.7217298 4.64508387,5.68915404 4.75785806,5.68915404 C9.42353548,5.69079545 14.0893419,5.68940657 18.7550194,5.69155303 C19.6285677,5.69205808 20.1936,6.46832071 19.8912774,7.24344697 C19.6920516,7.75455808 19.2587613,7.92652778 18.7499871,7.97248737 C18.5686968,7.98877525 18.3846968,7.97640152 18.2019871,7.97640152 C13.697471,7.97551768 9.19295484,7.97438131 4.68856774,7.97311869 C4.59385806,7.97311869 4.49411613,7.94925505 4.36405161,8.08069444" id="Fill-1" fill="#ffffff" mask="url(#mask-2)"></path>
        </g>
    </g>
</svg>